inDegrees=yes
name=ik_S50_A10_T02
DataType=double
version=3
OpenSimVersion=4.3-2021-08-27-4bc7ad9
endheader
time	pelvis_tilt	pelvis_list	pelvis_rotation	pelvis_tx	pelvis_ty	pelvis_tz	hip_flexion_r	hip_adduction_r	hip_rotation_r	knee_angle_r	knee_angle_r_beta	ankle_angle_r	subtalar_angle_r	mtp_angle_r	hip_flexion_l	hip_adduction_l	hip_rotation_l	knee_angle_l	knee_angle_l_beta	ankle_angle_l	subtalar_angle_l	mtp_angle_l	lumbar_extension	lumbar_bending	lumbar_rotation	arm_flex_r	arm_add_r	arm_rot_r	elbow_flex_r	pro_sup_r	wrist_flex_r	wrist_dev_r	arm_flex_l	arm_add_l	arm_rot_l	elbow_flex_l	pro_sup_l	wrist_flex_l	wrist_dev_l
0	0	0	0	0	0.9399999999999999	0	0	0	0	0	0	0	0	0	0	0	0	0	0	0	0	0	0	0	0	0	0	0	0	89.99999999963507	0	0	0	0	0	0	89.99999999869995	0	0
0.02	-0.3015799604515846	-1.343495305073493	25.10921996869257	0	0.9399999999999999	0	1.968765629353241	-0.9200251721828985	-0.6624686920039178	3.071453788416734	0.05360698143072527	0	0	0	1.968765629353241	-0.9200251721828985	-0.6624686920039178	3.071453788416734	0.05360698143072527	0	0	0	-0.8514532821785959	0.1025257125942662	11.09786633152775	9.761438413240464	2.857467209998677	13.69483068376888	0.8534914832838827	84.65687923932212	0	0	12.39051455045283	1.14953373976735	19.30167800975046	10.24615920330976	81.99115243012893	0	0
0.04	-0.3110120682346183	-1.318271887946988	25.28573485995879	0	0.9399999999999999	0	3.959222307096204	-1.818809086631047	-1.380099536149158	4.929419934520774	0.08603460807083078	0	0	0	3.959222307096204	-1.818809086631047	-1.380099536149158	4.929419934520774	0.08603460807083078	0	0	0	-0.8393235879784683	0.07269186219884047	10.91812476743663	9.748948080831536	2.864882089804334	13.68291737241167	0.8349614421198581	84.6804270171685	0	0	12.35557305390928	1.16268597802061	19.32163163999249	10.24099566399321	82.00730588165911	0	0
0.06	-0.3236646100343367	-1.323730505533712	25.31541385843661	0	0.9399999999999999	0	4.340649756066015	-1.978467562878446	-1.514666311487317	5.244140589021707	0.09152751971590359	0	0	0	4.340649756066015	-1.978467562878446	-1.514666311487317	5.244140589021707	0.09152751971590359	0	0	0	-0.8523013705806897	0.06411943266219775	10.87247642331674	9.772470286456855	2.871583397457048	13.68010831435091	0.8499942296310034	84.6110426390853	0	0	12.34736702488132	1.159652514132894	19.35694891509881	10.39857467072316	81.98440412320096	0	0
0.08	-0.3236077618577753	-1.322893659242851	25.34597412838981	0	0.9399999999999999	0	4.719809060748523	-2.134328657825427	-1.647584195079302	5.554453578251787	0.09694350308967417	0	0	0	4.719809060748523	-2.134328657825427	-1.647584195079302	5.554453578251787	0.09694350308967417	0	0	0	-0.8509731885032106	0.05567253411566903	10.83203706329475	9.775841872959816	2.884520617524089	13.68981585059971	0.8473003315213735	84.58279913095252	0	0	12.33077886240016	1.163307923114417	19.41659990704184	10.45157314772195	81.94984076150662	0	0
0.1	-0.3333811797099335	-1.327013756688326	25.36794281535736	0	0.9399999999999999	0	5.063081087986555	-2.276170162429302	-1.767078455407022	5.848293138028557	0.1020719708803895	0	0	0	5.063081087986555	-2.276170162429302	-1.767078455407022	5.848293138028557	0.1020719708803895	0	0	0	-0.860908519006309	0.04813200397941884	10.79242391306245	9.800447457110698	2.879144499860995	13.61785487016825	0.8815956115070348	84.61841225198737	0	0	12.35896397466219	1.151983132019426	19.46062433937528	10.39342883594487	81.88002083060248	0	0
0.12	-0.3447985523720564	-1.325948245295165	25.39428453809977	0	0.9399999999999999	0	5.410433111916462	-2.413848721271557	-1.887209134699183	6.128952593346988	0.1069704024525501	0	0	0	5.410433111916462	-2.413848721271557	-1.887209134699183	6.128952593346988	0.1069704024525501	0	0	0	-0.8705282659239647	0.04637576809525001	10.74611128848308	9.850389139827948	2.869930023373146	13.63016201786974	0.7868411382257318	84.54358259274403	0	0	12.30679443113637	1.17031017017454	19.51720278813518	10.55300779453536	81.82457909230392	0	0
0.14	-0.3445711141689748	-1.334935002048724	25.43874104542915	0	0.9399999999999999	0	5.759084713020529	-2.556104988912806	-2.006904673788392	6.440374077443373	0.1124057327114791	0	0	0	5.759084713020529	-2.556104988912806	-2.006904673788392	6.440374077443373	0.1124057327114791	0	0	0	-0.8739859254008862	0.03040614790247743	10.71265669974329	9.829991745385833	2.87276669473264	13.63628741410885	0.8775058824781687	84.47431006087744	0	0	12.33844876533257	1.162194405126687	19.55107053521792	10.4735274563644	81.78344793218555	0	0
0.16	-0.3514460372724419	-1.342790827297974	25.47167835660553	0	0.9399999999999999	0	6.069493530689599	-2.67976737511898	-2.112882415565082	6.710459834806317	0.117119618440205	0	0	0	6.069493530689599	-2.67976737511898	-2.112882415565082	6.710459834806317	0.117119618440205	0	0	0	-0.8834148258065064	0.01959930801307386	10.67308244951655	9.852042176344071	2.89142785419249	13.65307645111038	0.8530972279195346	84.43963076624121	0	0	12.34958984315874	1.157339997620108	19.57923191389614	10.51719486851072	81.76942162280916	0	0
0.18	-0.3498274967436594	-1.336061289353149	25.50246892107741	0	0.9399999999999999	0	6.308450674611271	-2.778501806563006	-2.193765756650247	6.945067999737278	0.1212143033703122	0	0	0	6.308450674611271	-2.778501806563006	-2.193765756650247	6.945067999737278	0.1212143033703122	0	0	0	-0.8790655762838649	0.02003673379966855	10.63446385883792	9.847597035497973	2.865816740447619	13.67449269584104	0.8933295132527115	84.31982564909349	0	0	12.28842650990732	1.133938420547902	19.55406041388628	10.58433100820343	81.79144890691741	0	0
